<?xml version="1.0" encoding="utf-8"?>
<!-- Generator: Adobe Illustrator 20.0.0, SVG Export Plug-In . SVG Version: 6.00 Build 0)  -->
<svg version="1.1" id="Layer_1" xmlns="http://www.w3.org/2000/svg" xmlns:xlink="http://www.w3.org/1999/xlink" x="0px" y="0px"
	 viewBox="0 0 649.9 399.3" style="enable-background:new 0 0 649.9 399.3;" xml:space="preserve">
<style type="text/css">
	.st0{fill:none;stroke:#000000;stroke-width:14;stroke-miterlimit:10;}
</style>
<g>
	<g>
		<path d="M551.9,61.6c-3.8-3.8-10.6-7.3-13.9-4S301.8,294.8,301.8,294.8L67.5,57.6c-4-3.9-10.1-0.8-13.9,3
			c-3.9,4.3-7.8,11.1-4,14.9l246.2,246.2c1.8,1.8,4.3,2.9,6.9,2.9c2.6,0,5.1-1,6.9-2.9L555.9,75.5C559.7,71.6,555.7,65.4,551.9,61.6
			z"/>
	</g>
</g>
<path class="st0" d="M302.7,250.9L526.5,22.8c16.4-14.8,44.9,3,55.7,12.9c7.8,8,25.8,35.8,13.6,51.2
	C582.7,100,324.9,353.5,319.6,359.1c-9.1,8.6-19.8,9.4-30,0.1L19.6,90.7C9,80.2,18.6,49.6,29.6,38.6S66.4,13.8,81,27.8L302.7,250.9z
	"/>
</svg>
