<svg xmlns="http://www.w3.org/2000/svg" xmlns:xlink="http://www.w3.org/1999/xlink" preserveAspectRatio="xMidYMid" width="90.75" height="90.5" viewBox="0 0 90.75 90.5">
  <defs>
    <style>
      .cls-1 {
        fill: #fde67b;
        filter: url(#inner-shadow-1);
      }

      .cls-1, .cls-2 {
        fill-rule: evenodd;
      }

      .cls-2 {
        fill: #35363a;
      }
    </style>

    <filter id="inner-shadow-1" filterUnits="userSpaceOnUse">
      <feOffset dy="1" in="SourceAlpha"/>
      <feGaussianBlur result="innerShadowBlur"/>
      <feFlood flood-color="#fff" flood-opacity="0.1"/>
      <feComposite operator="out" in2="innerShadowBlur"/>
      <feComposite operator="in" in2="SourceAlpha"/>
      <feBlend in2="SourceGraphic" result="innerShadow"/>
    </filter>
  </defs>
  <g>
    <path d="M45.502,0.001 C81.077,0.001 90.751,9.391 90.751,45.756 C90.751,81.331 80.824,90.500 45.249,90.500 C8.884,90.500 0.000,81.078 0.000,45.504 C0.000,9.139 9.137,0.001 45.502,0.001 Z" class="cls-1"/>
    <path d="M58.625,28.250 L32.375,28.250 C29.960,28.250 28.000,30.210 28.000,32.625 L28.000,58.875 C28.000,61.290 29.960,63.250 32.375,63.250 L58.625,63.250 C61.040,63.250 63.000,61.290 63.000,58.875 L63.000,32.625 C63.000,30.210 61.040,28.250 58.625,28.250 M45.500,41.375 C49.530,41.375 49.875,45.750 49.875,45.750 C49.875,45.750 50.004,50.125 45.500,50.125 C40.998,50.125 41.125,45.750 41.125,45.750 C41.125,45.750 41.471,41.375 45.500,41.375 M58.969,56.656 C58.969,57.865 57.585,59.219 56.375,59.219 L34.500,59.219 C33.290,59.219 31.969,57.896 31.969,56.688 L31.969,45.750 C31.969,44.541 33.353,43.250 34.563,43.250 L37.061,43.250 C36.877,43.953 36.750,44.990 36.750,45.750 C36.750,50.582 40.668,54.500 45.500,54.500 C50.332,54.500 54.250,50.582 54.250,45.750 C54.250,44.990 54.121,43.985 53.939,43.281 L56.438,43.281 C57.647,43.281 58.969,44.510 58.969,45.719 L58.969,56.656 ZM58.625,37.000 C58.625,38.208 57.647,39.188 56.438,39.188 L54.250,39.188 C53.043,39.188 52.063,38.208 52.063,37.000 L52.063,34.813 C52.063,33.605 53.043,32.625 54.250,32.625 L56.438,32.625 C57.647,32.625 58.625,33.605 58.625,34.813 L58.625,37.000 Z" class="cls-2"/>
  </g>
</svg>
