<?xml version="1.0" encoding="utf-8"?>
<!-- Generator: Adobe Illustrator 20.0.0, SVG Export Plug-In . SVG Version: 6.00 Build 0)  -->
<svg version="1.1" id="Layer_1" xmlns="http://www.w3.org/2000/svg" xmlns:xlink="http://www.w3.org/1999/xlink" x="0px" y="0px"
	 viewBox="0 0 266.5 290.4" style="enable-background:new 0 0 266.5 290.4;" xml:space="preserve">
<style type="text/css">
	.st0{fill:#1D1D1B;}
	.st1{fill:none;stroke:#1D1D1B;stroke-width:3;stroke-miterlimit:10;}
</style>
<title>keane_logo</title>
<polygon vector-effect="none" class="st0" points="20.8,20.7 20.8,47.3 35,47.3 35,240.4 20.8,240.4 20.8,271.4 93,271.4 93,240.9 78.8,240.9 78.3,198.6
	109.7,168.1 180.5,239.9 148.7,239.9 149.1,271.4 246.3,271.8 246.3,240.4 227.6,239.9 133.6,145.2 228.2,48.2 246.3,47.7
	246.3,19.3 148.7,19.3 148.7,48.3 179,48.3 79.2,148.6 78.8,47.8 94,47.3 94.5,20.3 "/>
<polygon vector-effect="none" class="st1" points="2.5,286.8 2.5,223.8 20.5,223.8 20.5,63.4 2.5,63.4 2.5,1.5 112.9,1.5 112.9,62.8 95.5,63.2
	95.5,107.8 141.8,62.8 131,62.8 131,1.5 264,1.5 264,62.2 239.4,62.2 158.8,142.4 239.1,224.2 264,224.4 264,286.8 132.7,286.8
	132.7,224.1 142,224.1 109.7,192 95.4,205.8 95.4,224.4 112.7,224.8 112.3,286.8 "/>
</svg>
