<svg xmlns="http://www.w3.org/2000/svg" xmlns:xlink="http://www.w3.org/1999/xlink" preserveAspectRatio="xMidYMid" width="90.75" height="90.5" viewBox="0 0 90.75 90.5">
  <defs>
    <style>
      .cls-1 {
        fill: #fde67b;
        filter: url(#inner-shadow-1);
      }

      .cls-1, .cls-2 {
        fill-rule: evenodd;
      }

      .cls-2 {
        fill: #35363a;
      }
    </style>

    <filter id="inner-shadow-1" filterUnits="userSpaceOnUse">
      <feOffset dy="1" in="SourceAlpha"/>
      <feGaussianBlur result="innerShadowBlur"/>
      <feFlood flood-color="#fff" flood-opacity="0.1"/>
      <feComposite operator="out" in2="innerShadowBlur"/>
      <feComposite operator="in" in2="SourceAlpha"/>
      <feBlend in2="SourceGraphic" result="innerShadow"/>
    </filter>
  </defs>
  <g>
    <path d="M45.502,0.001 C81.077,0.001 90.751,9.391 90.751,45.756 C90.751,81.331 80.824,90.500 45.249,90.500 C8.884,90.500 0.000,81.078 0.000,45.504 C0.000,9.139 9.137,0.001 45.502,0.001 Z" class="cls-1"/>
    <path d="M66.533,34.288 C65.003,34.963 63.359,35.419 61.633,35.625 C63.394,34.574 64.747,32.910 65.383,30.929 C63.734,31.902 61.910,32.608 59.966,32.988 C58.410,31.338 56.194,30.307 53.739,30.307 C49.027,30.307 45.208,34.108 45.208,38.798 C45.208,39.464 45.284,40.111 45.430,40.733 C38.341,40.379 32.056,36.998 27.848,31.862 C27.114,33.115 26.695,34.574 26.695,36.130 C26.695,39.075 28.201,41.675 30.489,43.196 C29.089,43.152 27.775,42.770 26.625,42.134 C26.625,42.170 26.625,42.206 26.625,42.241 C26.625,46.355 29.565,49.785 33.468,50.568 C32.752,50.761 32.000,50.865 31.221,50.865 C30.672,50.865 30.136,50.812 29.616,50.712 C30.701,54.084 33.852,56.539 37.584,56.608 C34.665,58.885 30.987,60.242 26.989,60.242 C26.302,60.242 25.621,60.202 24.954,60.125 C28.728,62.533 33.212,63.939 38.030,63.939 C53.721,63.939 62.301,51.001 62.301,39.782 C62.301,39.413 62.292,39.049 62.276,38.684 C63.943,37.487 65.390,35.992 66.533,34.290 L66.533,34.288 Z" class="cls-2"/>
  </g>
</svg>
